<?xml version="1.0" standalone="no"?>
<!DOCTYPE svg PUBLIC "-//W3C//DTD SVG 20010904//EN"
 "http://www.w3.org/TR/2001/REC-SVG-20010904/DTD/svg10.dtd">
<svg version="1.0" xmlns="http://www.w3.org/2000/svg"
 width="246.000000pt" height="246.000000pt" viewBox="0 0 246.000000 246.000000"
 preserveAspectRatio="xMidYMid meet">
<metadata>
Created by potrace 1.14, written by Peter Selinger 2001-2017
</metadata>
<g transform="translate(0.000000,246.000000) scale(0.100000,-0.100000)"
fill="#000000" stroke="none">
<path d="M1680 2414 c-170 -35 -253 -40 -331 -19 -150 41 -249 15 -321 -84
-23 -31 -45 -58 -49 -61 -9 -7 -139 -267 -144 -290 -1 -3 -16 -36 -34 -75 -18
-38 -44 -94 -57 -122 -24 -51 -40 -63 -59 -44 -13 12 -117 41 -148 41 -31 0
-90 -24 -106 -43 -6 -8 -23 -18 -36 -21 -35 -9 -41 -45 -16 -92 12 -21 21 -51
21 -66 0 -59 35 -108 76 -108 15 0 24 -6 24 -15 0 -14 -18 -53 -30 -65 -8 -8
-71 -140 -102 -214 -16 -39 -45 -129 -63 -201 -31 -118 -33 -142 -32 -255 2
-103 6 -133 24 -172 63 -139 184 -232 398 -308 82 -28 287 -80 375 -94 309
-48 471 -57 562 -31 70 19 145 55 198 94 77 56 210 208 210 239 0 6 4 12 8 14
12 5 53 106 68 168 16 64 18 220 4 270 -5 19 -11 46 -14 60 -2 14 -20 71 -40
127 -20 56 -36 107 -36 113 0 5 18 10 39 10 45 0 65 20 81 80 5 20 19 46 30
58 27 29 25 47 -8 80 -37 37 -87 62 -139 69 -23 3 -43 9 -43 13 0 4 22 51 49
104 27 53 46 96 42 96 -3 0 -1 4 4 8 6 4 48 80 93 169 74 149 81 167 76 209
-6 58 -24 93 -68 132 -36 32 -59 43 -160 83 -42 16 -64 31 -75 52 -28 50 -53
78 -80 89 -40 16 -119 17 -191 2z"/>
</g>
</svg>
